<mxfile host="65bd71144e">
    <diagram id="yGzCFQffSBaVcVvF1mcx" name="Page-1">
        <mxGraphModel dx="2308" dy="2345" grid="1" gridSize="10" guides="1" tooltips="1" connect="1" arrows="1" fold="1" page="1" pageScale="1" pageWidth="850" pageHeight="1100" math="0" shadow="0">
            <root>
                <mxCell id="0"/>
                <mxCell id="1" parent="0"/>
                <mxCell id="6" value="User" style="swimlane;fontStyle=1;align=center;verticalAlign=top;childLayout=stackLayout;horizontal=1;startSize=26;horizontalStack=0;resizeParent=1;resizeParentMax=0;resizeLast=0;collapsible=1;marginBottom=0;whiteSpace=wrap;html=1;" vertex="1" parent="1">
                    <mxGeometry x="-410" y="-380" width="400" height="328" as="geometry"/>
                </mxCell>
                <mxCell id="8" value="" style="line;strokeWidth=1;fillColor=none;align=left;verticalAlign=middle;spacingTop=-1;spacingLeft=3;spacingRight=3;rotatable=0;labelPosition=right;points=[];portConstraint=eastwest;strokeColor=inherit;" vertex="1" parent="6">
                    <mxGeometry y="26" width="400" height="8" as="geometry"/>
                </mxCell>
                <mxCell id="7" value="&lt;div style=&quot;color: rgb(171, 178, 191); background-color: rgb(22, 25, 29); font-family: Consolas, &amp;quot;Courier New&amp;quot;, monospace, Consolas, &amp;quot;Courier New&amp;quot;, monospace; font-size: 18px; line-height: 24px; white-space: pre;&quot;&gt;&lt;div&gt;&lt;span style=&quot;color: rgb(171, 178, 191);&quot;&gt;&amp;nbsp; &lt;/span&gt;&lt;span style=&quot;color: rgb(224, 108, 117);&quot;&gt;id&lt;/span&gt;&lt;span style=&quot;color: rgb(171, 178, 191);&quot;&gt;: &lt;/span&gt;&lt;span style=&quot;color: rgb(229, 192, 123);&quot;&gt;string&lt;/span&gt;&lt;span style=&quot;color: rgb(171, 178, 191);&quot;&gt;;&lt;/span&gt;&lt;/div&gt;&lt;div&gt;&lt;span style=&quot;color: rgb(171, 178, 191);&quot;&gt;&amp;nbsp; &lt;/span&gt;&lt;span style=&quot;color: rgb(224, 108, 117);&quot;&gt;name&lt;/span&gt;&lt;span style=&quot;color: rgb(171, 178, 191);&quot;&gt;: &lt;/span&gt;&lt;span style=&quot;color: rgb(229, 192, 123);&quot;&gt;string&lt;/span&gt;&lt;span style=&quot;color: rgb(171, 178, 191);&quot;&gt;;&lt;/span&gt;&lt;/div&gt;&lt;div&gt;&lt;span style=&quot;color: rgb(171, 178, 191);&quot;&gt;&amp;nbsp; &lt;/span&gt;&lt;span style=&quot;color: rgb(224, 108, 117);&quot;&gt;email&lt;/span&gt;&lt;span style=&quot;color: rgb(171, 178, 191);&quot;&gt;: &lt;/span&gt;&lt;span style=&quot;color: rgb(229, 192, 123);&quot;&gt;string&lt;/span&gt;&lt;span style=&quot;color: rgb(171, 178, 191);&quot;&gt;;&lt;/span&gt;&lt;/div&gt;&lt;/div&gt;&lt;div&gt;&lt;div style=&quot;color: rgb(171, 178, 191); background-color: rgb(22, 25, 29); font-family: Consolas, &amp;quot;Courier New&amp;quot;, monospace, Consolas, &amp;quot;Courier New&amp;quot;, monospace; font-size: 18px; line-height: 24px; white-space: pre;&quot;&gt;&lt;div&gt;&lt;span style=&quot;color: rgb(224, 108, 117);&quot;&gt;  password&lt;/span&gt;&lt;span style=&quot;color: rgb(171, 178, 191);&quot;&gt;: &lt;/span&gt;&lt;span style=&quot;color: rgb(229, 192, 123);&quot;&gt;string&lt;/span&gt;&lt;span style=&quot;color: rgb(171, 178, 191);&quot;&gt;;&lt;/span&gt;&lt;/div&gt;&lt;div&gt;&lt;span style=&quot;color: rgb(171, 178, 191);&quot;&gt;&amp;nbsp; &lt;/span&gt;&lt;span style=&quot;color: rgb(224, 108, 117);&quot;&gt;imageUrl&lt;/span&gt;&lt;span style=&quot;color: rgb(198, 120, 221);&quot;&gt;?&lt;/span&gt;&lt;span style=&quot;color: rgb(171, 178, 191);&quot;&gt;: &lt;/span&gt;&lt;span style=&quot;color: rgb(229, 192, 123);&quot;&gt;string&lt;/span&gt;&lt;span style=&quot;color: rgb(171, 178, 191);&quot;&gt;;&lt;/span&gt;&lt;/div&gt;&lt;div&gt;&lt;span style=&quot;color: rgb(171, 178, 191);&quot;&gt;&amp;nbsp; &lt;/span&gt;&lt;span style=&quot;color: rgb(224, 108, 117);&quot;&gt;phoneNumber&lt;/span&gt;&lt;span style=&quot;color: rgb(198, 120, 221);&quot;&gt;?&lt;/span&gt;&lt;span style=&quot;color: rgb(171, 178, 191);&quot;&gt;: &lt;/span&gt;&lt;span style=&quot;color: rgb(229, 192, 123);&quot;&gt;string&lt;/span&gt;&lt;span style=&quot;color: rgb(171, 178, 191);&quot;&gt;;&lt;/span&gt;&lt;/div&gt;&lt;div&gt;&lt;span style=&quot;color: rgb(171, 178, 191);&quot;&gt;&amp;nbsp; &lt;/span&gt;&lt;span style=&quot;color: rgb(224, 108, 117);&quot;&gt;address&lt;/span&gt;&lt;span style=&quot;color: rgb(198, 120, 221);&quot;&gt;?&lt;/span&gt;&lt;span style=&quot;color: rgb(171, 178, 191);&quot;&gt;: &lt;/span&gt;&lt;span style=&quot;color: rgb(229, 192, 123);&quot;&gt;string&lt;/span&gt;&lt;span style=&quot;color: rgb(171, 178, 191);&quot;&gt;;&lt;/span&gt;&lt;/div&gt;&lt;div&gt;&lt;span style=&quot;color: rgb(171, 178, 191);&quot;&gt;&amp;nbsp; &lt;/span&gt;&lt;span style=&quot;color: rgb(224, 108, 117);&quot;&gt;createdAt&lt;/span&gt;&lt;span style=&quot;color: rgb(171, 178, 191);&quot;&gt;: &lt;/span&gt;&lt;span style=&quot;color: rgb(229, 192, 123);&quot;&gt;string&lt;/span&gt;&lt;span style=&quot;color: rgb(171, 178, 191);&quot;&gt;;&lt;/span&gt;&lt;/div&gt;&lt;div&gt;&lt;span style=&quot;color: rgb(171, 178, 191);&quot;&gt;&amp;nbsp; &lt;/span&gt;&lt;span style=&quot;color: rgb(224, 108, 117);&quot;&gt;updatedAt&lt;/span&gt;&lt;span style=&quot;color: rgb(171, 178, 191);&quot;&gt;: &lt;/span&gt;&lt;span style=&quot;color: rgb(229, 192, 123);&quot;&gt;string&lt;/span&gt;&lt;span style=&quot;color: rgb(171, 178, 191);&quot;&gt;;&lt;/span&gt;&lt;/div&gt;&lt;div&gt;&lt;span style=&quot;color: rgb(171, 178, 191);&quot;&gt;&amp;nbsp; &lt;/span&gt;&lt;span style=&quot;color: rgb(224, 108, 117);&quot;&gt;accounts&lt;/span&gt;&lt;span style=&quot;color: rgb(171, 178, 191);&quot;&gt;: &lt;/span&gt;&lt;span style=&quot;color: rgb(229, 192, 123);&quot;&gt;Account&lt;/span&gt;&lt;span style=&quot;color: rgb(171, 178, 191);&quot;&gt;[];&lt;/span&gt;&lt;/div&gt;&lt;div&gt;&lt;span style=&quot;color: rgb(171, 178, 191);&quot;&gt;&amp;nbsp; &lt;/span&gt;&lt;span style=&quot;color: rgb(224, 108, 117);&quot;&gt;accountNumber&lt;/span&gt;&lt;span style=&quot;color: rgb(198, 120, 221);&quot;&gt;?&lt;/span&gt;&lt;span style=&quot;color: rgb(171, 178, 191);&quot;&gt;: &lt;/span&gt;&lt;span style=&quot;color: rgb(229, 192, 123);&quot;&gt;number&lt;/span&gt;&lt;span style=&quot;color: rgb(171, 178, 191);&quot;&gt;;&lt;/span&gt;&lt;/div&gt;&lt;div&gt;&lt;span style=&quot;color: rgb(171, 178, 191);&quot;&gt;&amp;nbsp; &lt;/span&gt;&lt;span style=&quot;color: rgb(224, 108, 117);&quot;&gt;type&lt;/span&gt;&lt;span style=&quot;color: rgb(171, 178, 191);&quot;&gt;: &lt;/span&gt;&lt;span style=&quot;color: rgb(152, 195, 121);&quot;&gt;&quot;customer&quot;&lt;/span&gt;&lt;span style=&quot;color: rgb(171, 178, 191);&quot;&gt; | &lt;/span&gt;&lt;span style=&quot;color: rgb(152, 195, 121);&quot;&gt;&quot;csr&quot;&lt;/span&gt;&lt;span style=&quot;color: rgb(171, 178, 191);&quot;&gt; | &lt;/span&gt;&lt;span style=&quot;color: rgb(152, 195, 121);&quot;&gt;&quot;admin&quot;&lt;/span&gt;&lt;span style=&quot;color: rgb(171, 178, 191);&quot;&gt;;&lt;/span&gt;&lt;/div&gt;&lt;div&gt;&lt;span style=&quot;color: rgb(171, 178, 191);&quot;&gt;&amp;nbsp; &lt;/span&gt;&lt;span style=&quot;color: rgb(224, 108, 117);&quot;&gt;supportTickets&lt;/span&gt;&lt;span style=&quot;color: rgb(198, 120, 221);&quot;&gt;?&lt;/span&gt;&lt;span style=&quot;color: rgb(171, 178, 191);&quot;&gt;: &lt;/span&gt;&lt;span style=&quot;color: rgb(229, 192, 123);&quot;&gt;SupportTicket&lt;/span&gt;&lt;span style=&quot;color: rgb(171, 178, 191);&quot;&gt;[];&lt;/span&gt;&lt;/div&gt;&lt;/div&gt;&lt;/div&gt;" style="text;strokeColor=none;fillColor=none;align=left;verticalAlign=top;spacingLeft=4;spacingRight=4;overflow=hidden;rotatable=0;points=[[0,0.5],[1,0.5]];portConstraint=eastwest;whiteSpace=wrap;html=1;" vertex="1" parent="6">
                    <mxGeometry y="34" width="400" height="294" as="geometry"/>
                </mxCell>
                <mxCell id="10" value="Account" style="swimlane;fontStyle=1;align=center;verticalAlign=top;childLayout=stackLayout;horizontal=1;startSize=26;horizontalStack=0;resizeParent=1;resizeParentMax=0;resizeLast=0;collapsible=1;marginBottom=0;whiteSpace=wrap;html=1;" vertex="1" parent="1">
                    <mxGeometry x="20" y="380" width="320" height="210" as="geometry"/>
                </mxCell>
                <mxCell id="11" value="" style="line;strokeWidth=1;fillColor=none;align=left;verticalAlign=middle;spacingTop=-1;spacingLeft=3;spacingRight=3;rotatable=0;labelPosition=right;points=[];portConstraint=eastwest;strokeColor=inherit;" vertex="1" parent="10">
                    <mxGeometry y="26" width="320" height="8" as="geometry"/>
                </mxCell>
                <mxCell id="12" value="&lt;div style=&quot;color: rgb(171, 178, 191); background-color: rgb(22, 25, 29); font-family: Consolas, &amp;quot;Courier New&amp;quot;, monospace, Consolas, &amp;quot;Courier New&amp;quot;, monospace; font-size: 18px; line-height: 24px; white-space: pre;&quot;&gt;&lt;div style=&quot;color: rgb(171, 178, 191); line-height: 24px;&quot;&gt;&lt;div&gt;&lt;span style=&quot;color: #e06c75;&quot;&gt;id&lt;/span&gt;&lt;span style=&quot;color: #abb2bf;&quot;&gt;: &lt;/span&gt;&lt;span style=&quot;color: #e5c07b;&quot;&gt;string&lt;/span&gt;&lt;span style=&quot;color: #abb2bf;&quot;&gt;;&lt;/span&gt;&lt;/div&gt;&lt;div&gt;&lt;span style=&quot;color: #abb2bf;&quot;&gt;&amp;nbsp; &lt;/span&gt;&lt;span style=&quot;color: #e06c75;&quot;&gt;accountNumber&lt;/span&gt;&lt;span style=&quot;color: #abb2bf;&quot;&gt;: &lt;/span&gt;&lt;span style=&quot;color: #e5c07b;&quot;&gt;number&lt;/span&gt;&lt;span style=&quot;color: #abb2bf;&quot;&gt;;&lt;/span&gt;&lt;/div&gt;&lt;div&gt;&lt;span style=&quot;color: #abb2bf;&quot;&gt;&amp;nbsp; &lt;/span&gt;&lt;span style=&quot;color: #e06c75;&quot;&gt;balance&lt;/span&gt;&lt;span style=&quot;color: #abb2bf;&quot;&gt;: &lt;/span&gt;&lt;span style=&quot;color: #e5c07b;&quot;&gt;number&lt;/span&gt;&lt;span style=&quot;color: #abb2bf;&quot;&gt;;&lt;/span&gt;&lt;/div&gt;&lt;div&gt;&lt;span style=&quot;color: #abb2bf;&quot;&gt;&amp;nbsp; &lt;/span&gt;&lt;span style=&quot;color: #e06c75;&quot;&gt;createdAt&lt;/span&gt;&lt;span style=&quot;color: #abb2bf;&quot;&gt;: &lt;/span&gt;&lt;span style=&quot;color: #e5c07b;&quot;&gt;string&lt;/span&gt;&lt;span style=&quot;color: #abb2bf;&quot;&gt;;&lt;/span&gt;&lt;/div&gt;&lt;div&gt;&lt;span style=&quot;color: #abb2bf;&quot;&gt;&amp;nbsp; &lt;/span&gt;&lt;span style=&quot;color: #e06c75;&quot;&gt;updatedAt&lt;/span&gt;&lt;span style=&quot;color: #abb2bf;&quot;&gt;: &lt;/span&gt;&lt;span style=&quot;color: #e5c07b;&quot;&gt;string&lt;/span&gt;&lt;span style=&quot;color: #abb2bf;&quot;&gt;;&lt;/span&gt;&lt;/div&gt;&lt;div&gt;&lt;span style=&quot;color: #abb2bf;&quot;&gt;&amp;nbsp; &lt;/span&gt;&lt;span style=&quot;color: #e06c75;&quot;&gt;userId&lt;/span&gt;&lt;span style=&quot;color: #abb2bf;&quot;&gt;: &lt;/span&gt;&lt;span style=&quot;color: #e5c07b;&quot;&gt;string&lt;/span&gt;&lt;span style=&quot;color: #abb2bf;&quot;&gt;; &lt;/span&gt;&lt;/div&gt;&lt;div&gt;&lt;span style=&quot;color: #abb2bf;&quot;&gt;&amp;nbsp; &lt;/span&gt;&lt;span style=&quot;color: #e06c75;&quot;&gt;transactions&lt;/span&gt;&lt;span style=&quot;color: #c678dd;&quot;&gt;?&lt;/span&gt;&lt;span style=&quot;color: #abb2bf;&quot;&gt;: &lt;/span&gt;&lt;span style=&quot;color: #e5c07b;&quot;&gt;Transaction&lt;/span&gt;&lt;span style=&quot;color: #abb2bf;&quot;&gt;[]; &lt;/span&gt;&lt;/div&gt;&lt;/div&gt;&lt;/div&gt;" style="text;strokeColor=none;fillColor=none;align=left;verticalAlign=top;spacingLeft=4;spacingRight=4;overflow=hidden;rotatable=0;points=[[0,0.5],[1,0.5]];portConstraint=eastwest;whiteSpace=wrap;html=1;" vertex="1" parent="10">
                    <mxGeometry y="34" width="320" height="176" as="geometry"/>
                </mxCell>
                <mxCell id="13" value="Transaction" style="swimlane;fontStyle=1;align=center;verticalAlign=top;childLayout=stackLayout;horizontal=1;startSize=26;horizontalStack=0;resizeParent=1;resizeParentMax=0;resizeLast=0;collapsible=1;marginBottom=0;whiteSpace=wrap;html=1;" vertex="1" parent="1">
                    <mxGeometry x="70" y="-410" width="460" height="260" as="geometry"/>
                </mxCell>
                <mxCell id="14" value="" style="line;strokeWidth=1;fillColor=none;align=left;verticalAlign=middle;spacingTop=-1;spacingLeft=3;spacingRight=3;rotatable=0;labelPosition=right;points=[];portConstraint=eastwest;strokeColor=inherit;" vertex="1" parent="13">
                    <mxGeometry y="26" width="460" height="8" as="geometry"/>
                </mxCell>
                <mxCell id="15" value="&lt;div style=&quot;color: rgb(171, 178, 191); font-family: Consolas, &amp;quot;Courier New&amp;quot;, monospace, Consolas, &amp;quot;Courier New&amp;quot;, monospace; font-size: 18px; line-height: 24px; white-space: pre;&quot;&gt;&lt;div style=&quot;color: rgb(171, 178, 191); line-height: 24px;&quot;&gt;&lt;div style=&quot;color: rgb(171, 178, 191); line-height: 24px;&quot;&gt;&lt;div style=&quot;&quot;&gt;&lt;span style=&quot;background-color: rgb(255, 255, 255);&quot;&gt;&lt;span style=&quot;color: rgb(171, 178, 191);&quot;&gt;&amp;nbsp;&lt;/span&gt;&lt;span style=&quot;color: rgb(224, 108, 117);&quot;&gt;id&lt;/span&gt;&lt;span style=&quot;color: rgb(171, 178, 191);&quot;&gt;: &lt;/span&gt;&lt;span style=&quot;color: rgb(229, 192, 123);&quot;&gt;string&lt;/span&gt;&lt;span style=&quot;color: rgb(171, 178, 191);&quot;&gt;;&lt;/span&gt;&lt;/span&gt;&lt;/div&gt;&lt;div style=&quot;&quot;&gt;&lt;span style=&quot;background-color: rgb(255, 255, 255);&quot;&gt;&lt;span style=&quot;color: rgb(171, 178, 191);&quot;&gt;&amp;nbsp; &lt;/span&gt;&lt;span style=&quot;color: rgb(224, 108, 117);&quot;&gt;type&lt;/span&gt;&lt;span style=&quot;color: rgb(171, 178, 191);&quot;&gt;: &lt;/span&gt;&lt;span style=&quot;color: rgb(152, 195, 121);&quot;&gt;&quot;deposit&quot;&lt;/span&gt;&lt;span style=&quot;color: rgb(171, 178, 191);&quot;&gt; | &lt;/span&gt;&lt;span style=&quot;color: rgb(152, 195, 121);&quot;&gt;&quot;withdrawal&quot;&lt;/span&gt;&lt;span style=&quot;color: rgb(171, 178, 191);&quot;&gt; | &lt;/span&gt;&lt;span style=&quot;color: rgb(152, 195, 121);&quot;&gt;&quot;transfer&quot;&lt;/span&gt;&lt;span style=&quot;color: rgb(171, 178, 191);&quot;&gt;;&lt;/span&gt;&lt;/span&gt;&lt;/div&gt;&lt;div style=&quot;&quot;&gt;&lt;span style=&quot;background-color: rgb(255, 255, 255);&quot;&gt;&lt;span style=&quot;color: rgb(171, 178, 191);&quot;&gt;&amp;nbsp; &lt;/span&gt;&lt;span style=&quot;color: rgb(224, 108, 117);&quot;&gt;amount&lt;/span&gt;&lt;span style=&quot;color: rgb(171, 178, 191);&quot;&gt;: &lt;/span&gt;&lt;span style=&quot;color: rgb(229, 192, 123);&quot;&gt;number&lt;/span&gt;&lt;span style=&quot;color: rgb(171, 178, 191);&quot;&gt;;&lt;/span&gt;&lt;/span&gt;&lt;/div&gt;&lt;div style=&quot;&quot;&gt;&lt;span style=&quot;background-color: rgb(255, 255, 255);&quot;&gt;&lt;span style=&quot;color: rgb(171, 178, 191);&quot;&gt;&amp;nbsp; &lt;/span&gt;&lt;span style=&quot;color: rgb(224, 108, 117);&quot;&gt;date&lt;/span&gt;&lt;span style=&quot;color: rgb(171, 178, 191);&quot;&gt;: &lt;/span&gt;&lt;span style=&quot;color: rgb(229, 192, 123);&quot;&gt;string&lt;/span&gt;&lt;span style=&quot;color: rgb(171, 178, 191);&quot;&gt;;&lt;/span&gt;&lt;/span&gt;&lt;/div&gt;&lt;div style=&quot;&quot;&gt;&lt;span style=&quot;background-color: rgb(255, 255, 255);&quot;&gt;&lt;span style=&quot;color: rgb(171, 178, 191);&quot;&gt;&amp;nbsp; &lt;/span&gt;&lt;span style=&quot;color: rgb(224, 108, 117);&quot;&gt;status&lt;/span&gt;&lt;span style=&quot;color: rgb(171, 178, 191);&quot;&gt;: &lt;/span&gt;&lt;span style=&quot;color: rgb(152, 195, 121);&quot;&gt;&quot;pending&quot;&lt;/span&gt;&lt;span style=&quot;color: rgb(171, 178, 191);&quot;&gt; | &lt;/span&gt;&lt;span style=&quot;color: rgb(152, 195, 121);&quot;&gt;&quot;completed&quot;&lt;/span&gt;&lt;span style=&quot;color: rgb(171, 178, 191);&quot;&gt; | &lt;/span&gt;&lt;span style=&quot;color: rgb(152, 195, 121);&quot;&gt;&quot;failed&quot;&lt;/span&gt;&lt;span style=&quot;color: rgb(171, 178, 191);&quot;&gt;;&lt;/span&gt;&lt;/span&gt;&lt;/div&gt;&lt;div style=&quot;&quot;&gt;&lt;span style=&quot;background-color: rgb(255, 255, 255);&quot;&gt;&lt;span style=&quot;color: rgb(171, 178, 191);&quot;&gt;&amp;nbsp; &lt;/span&gt;&lt;span style=&quot;color: rgb(224, 108, 117);&quot;&gt;fromAccountId&lt;/span&gt;&lt;span style=&quot;color: rgb(198, 120, 221);&quot;&gt;?&lt;/span&gt;&lt;span style=&quot;color: rgb(171, 178, 191);&quot;&gt;: &lt;/span&gt;&lt;span style=&quot;color: rgb(229, 192, 123);&quot;&gt;string&lt;/span&gt;&lt;span style=&quot;color: rgb(171, 178, 191);&quot;&gt;; &lt;/span&gt;&lt;/span&gt;&lt;/div&gt;&lt;div style=&quot;&quot;&gt;&lt;span style=&quot;background-color: rgb(255, 255, 255);&quot;&gt;&lt;span style=&quot;color: rgb(171, 178, 191);&quot;&gt;&amp;nbsp; &lt;/span&gt;&lt;span style=&quot;color: rgb(224, 108, 117);&quot;&gt;toAccountId&lt;/span&gt;&lt;span style=&quot;color: rgb(198, 120, 221);&quot;&gt;?&lt;/span&gt;&lt;span style=&quot;color: rgb(171, 178, 191);&quot;&gt;: &lt;/span&gt;&lt;span style=&quot;color: rgb(229, 192, 123);&quot;&gt;string&lt;/span&gt;&lt;span style=&quot;color: rgb(171, 178, 191);&quot;&gt;; &amp;nbsp; &lt;/span&gt;&lt;/span&gt;&lt;/div&gt;&lt;div style=&quot;&quot;&gt;&lt;span style=&quot;background-color: rgb(255, 255, 255);&quot;&gt;&lt;span style=&quot;color: rgb(171, 178, 191);&quot;&gt;&amp;nbsp; &lt;/span&gt;&lt;span style=&quot;color: rgb(224, 108, 117);&quot;&gt;accountId&lt;/span&gt;&lt;span style=&quot;color: rgb(198, 120, 221);&quot;&gt;?&lt;/span&gt;&lt;span style=&quot;color: rgb(171, 178, 191);&quot;&gt;: &lt;/span&gt;&lt;span style=&quot;color: rgb(229, 192, 123);&quot;&gt;string&lt;/span&gt;&lt;span style=&quot;color: rgb(171, 178, 191);&quot;&gt;; &amp;nbsp; &amp;nbsp; &lt;/span&gt;&lt;/span&gt;&lt;/div&gt;&lt;div style=&quot;&quot;&gt;&lt;span style=&quot;background-color: rgb(255, 255, 255);&quot;&gt;&lt;span style=&quot;color: rgb(171, 178, 191);&quot;&gt;&amp;nbsp; &lt;/span&gt;&lt;span style=&quot;color: rgb(224, 108, 117);&quot;&gt;description&lt;/span&gt;&lt;span style=&quot;color: rgb(198, 120, 221);&quot;&gt;?&lt;/span&gt;&lt;span style=&quot;color: rgb(171, 178, 191);&quot;&gt;: &lt;/span&gt;&lt;span style=&quot;color: rgb(229, 192, 123);&quot;&gt;string&lt;/span&gt;&lt;span style=&quot;color: rgb(171, 178, 191);&quot;&gt;;&lt;/span&gt;&lt;/span&gt;&lt;/div&gt;&lt;/div&gt;&lt;/div&gt;&lt;/div&gt;" style="text;strokeColor=none;fillColor=none;align=left;verticalAlign=top;spacingLeft=4;spacingRight=4;overflow=hidden;rotatable=0;points=[[0,0.5],[1,0.5]];portConstraint=eastwest;whiteSpace=wrap;html=1;" vertex="1" parent="13">
                    <mxGeometry y="34" width="460" height="226" as="geometry"/>
                </mxCell>
                <mxCell id="17" value="SupportTicket" style="swimlane;fontStyle=1;align=center;verticalAlign=top;childLayout=stackLayout;horizontal=1;startSize=26;horizontalStack=0;resizeParent=1;resizeParentMax=0;resizeLast=0;collapsible=1;marginBottom=0;whiteSpace=wrap;html=1;" vertex="1" parent="1">
                    <mxGeometry x="280" y="40" width="580" height="260" as="geometry"/>
                </mxCell>
                <mxCell id="18" value="" style="line;strokeWidth=1;fillColor=none;align=left;verticalAlign=middle;spacingTop=-1;spacingLeft=3;spacingRight=3;rotatable=0;labelPosition=right;points=[];portConstraint=eastwest;strokeColor=inherit;" vertex="1" parent="17">
                    <mxGeometry y="26" width="580" height="8" as="geometry"/>
                </mxCell>
                <mxCell id="19" value="&lt;div style=&quot;color: rgb(171, 178, 191); background-color: rgb(22, 25, 29); font-family: Consolas, &amp;quot;Courier New&amp;quot;, monospace, Consolas, &amp;quot;Courier New&amp;quot;, monospace; font-size: 18px; line-height: 24px; white-space: pre;&quot;&gt;&lt;div style=&quot;color: rgb(171, 178, 191); line-height: 24px;&quot;&gt;&lt;div style=&quot;color: rgb(171, 178, 191); line-height: 24px;&quot;&gt;&lt;div&gt;&lt;span style=&quot;color: #e06c75;&quot;&gt;id&lt;/span&gt;&lt;span style=&quot;color: #abb2bf;&quot;&gt;: &lt;/span&gt;&lt;span style=&quot;color: #e5c07b;&quot;&gt;string&lt;/span&gt;&lt;span style=&quot;color: #abb2bf;&quot;&gt;;&lt;/span&gt;&lt;/div&gt;&lt;div&gt;&lt;span style=&quot;color: #abb2bf;&quot;&gt;&amp;nbsp; &lt;/span&gt;&lt;span style=&quot;color: #e06c75;&quot;&gt;userId&lt;/span&gt;&lt;span style=&quot;color: #abb2bf;&quot;&gt;: &lt;/span&gt;&lt;span style=&quot;color: #e5c07b;&quot;&gt;string&lt;/span&gt;&lt;span style=&quot;color: #abb2bf;&quot;&gt;; &lt;/span&gt;&lt;/div&gt;&lt;div&gt;&lt;span style=&quot;color: #abb2bf;&quot;&gt;&amp;nbsp; &lt;/span&gt;&lt;span style=&quot;color: #e06c75;&quot;&gt;csrId&lt;/span&gt;&lt;span style=&quot;color: #c678dd;&quot;&gt;?&lt;/span&gt;&lt;span style=&quot;color: #abb2bf;&quot;&gt;: &lt;/span&gt;&lt;span style=&quot;color: #e5c07b;&quot;&gt;string&lt;/span&gt;&lt;span style=&quot;color: #abb2bf;&quot;&gt;; &lt;/span&gt;&lt;/div&gt;&lt;div&gt;&lt;span style=&quot;color: #abb2bf;&quot;&gt;&amp;nbsp; &lt;/span&gt;&lt;span style=&quot;color: #e06c75;&quot;&gt;subject&lt;/span&gt;&lt;span style=&quot;color: #abb2bf;&quot;&gt;: &lt;/span&gt;&lt;span style=&quot;color: #e5c07b;&quot;&gt;string&lt;/span&gt;&lt;span style=&quot;color: #abb2bf;&quot;&gt;; &lt;/span&gt;&lt;/div&gt;&lt;div&gt;&lt;span style=&quot;color: #abb2bf;&quot;&gt;&amp;nbsp; &lt;/span&gt;&lt;span style=&quot;color: #e06c75;&quot;&gt;message&lt;/span&gt;&lt;span style=&quot;color: #abb2bf;&quot;&gt;: &lt;/span&gt;&lt;span style=&quot;color: #e5c07b;&quot;&gt;string&lt;/span&gt;&lt;span style=&quot;color: #abb2bf;&quot;&gt;; &lt;/span&gt;&lt;/div&gt;&lt;div&gt;&lt;span style=&quot;color: #abb2bf;&quot;&gt;&amp;nbsp; &lt;/span&gt;&lt;span style=&quot;color: #e06c75;&quot;&gt;response&lt;/span&gt;&lt;span style=&quot;color: #c678dd;&quot;&gt;?&lt;/span&gt;&lt;span style=&quot;color: #abb2bf;&quot;&gt;: &lt;/span&gt;&lt;span style=&quot;color: #e5c07b;&quot;&gt;string&lt;/span&gt;&lt;span style=&quot;color: #abb2bf;&quot;&gt;; &lt;/span&gt;&lt;/div&gt;&lt;div&gt;&lt;span style=&quot;color: #abb2bf;&quot;&gt;&amp;nbsp; &lt;/span&gt;&lt;span style=&quot;color: #e06c75;&quot;&gt;status&lt;/span&gt;&lt;span style=&quot;color: #abb2bf;&quot;&gt;: &lt;/span&gt;&lt;span style=&quot;color: #98c379;&quot;&gt;&quot;open&quot;&lt;/span&gt;&lt;span style=&quot;color: #abb2bf;&quot;&gt; | &lt;/span&gt;&lt;span style=&quot;color: #98c379;&quot;&gt;&quot;in_progress&quot;&lt;/span&gt;&lt;span style=&quot;color: #abb2bf;&quot;&gt; | &lt;/span&gt;&lt;span style=&quot;color: #98c379;&quot;&gt;&quot;resolved&quot;&lt;/span&gt;&lt;span style=&quot;color: #abb2bf;&quot;&gt; | &lt;/span&gt;&lt;span style=&quot;color: #98c379;&quot;&gt;&quot;closed&quot;&lt;/span&gt;&lt;span style=&quot;color: #abb2bf;&quot;&gt;; &lt;/span&gt;&lt;/div&gt;&lt;div&gt;&lt;span style=&quot;color: #abb2bf;&quot;&gt;&amp;nbsp; &lt;/span&gt;&lt;span style=&quot;color: #e06c75;&quot;&gt;createdAt&lt;/span&gt;&lt;span style=&quot;color: #abb2bf;&quot;&gt;: &lt;/span&gt;&lt;span style=&quot;color: #e5c07b;&quot;&gt;string&lt;/span&gt;&lt;span style=&quot;color: #abb2bf;&quot;&gt;;&lt;/span&gt;&lt;/div&gt;&lt;div&gt;&lt;span style=&quot;color: #abb2bf;&quot;&gt;&amp;nbsp; &lt;/span&gt;&lt;span style=&quot;color: #e06c75;&quot;&gt;updatedAt&lt;/span&gt;&lt;span style=&quot;color: #abb2bf;&quot;&gt;: &lt;/span&gt;&lt;span style=&quot;color: #e5c07b;&quot;&gt;string&lt;/span&gt;&lt;span style=&quot;color: #abb2bf;&quot;&gt;;&lt;/span&gt;&lt;/div&gt;&lt;/div&gt;&lt;/div&gt;&lt;/div&gt;" style="text;strokeColor=none;fillColor=none;align=left;verticalAlign=top;spacingLeft=4;spacingRight=4;overflow=hidden;rotatable=0;points=[[0,0.5],[1,0.5]];portConstraint=eastwest;whiteSpace=wrap;html=1;" vertex="1" parent="17">
                    <mxGeometry y="34" width="580" height="226" as="geometry"/>
                </mxCell>
                <mxCell id="21" style="edgeStyle=none;html=1;exitX=1;exitY=0.5;exitDx=0;exitDy=0;entryX=0.25;entryY=0;entryDx=0;entryDy=0;" edge="1" parent="1">
                    <mxGeometry relative="1" as="geometry">
                        <mxPoint x="-10" y="-198" as="sourcePoint"/>
                        <mxPoint x="100" y="381" as="targetPoint"/>
                    </mxGeometry>
                </mxCell>
                <mxCell id="29" value="&lt;span style=&quot;font-size: 40px;&quot;&gt;*&lt;/span&gt;" style="edgeLabel;html=1;align=center;verticalAlign=middle;resizable=0;points=[];" vertex="1" connectable="0" parent="21">
                    <mxGeometry x="0.7999" y="2" relative="1" as="geometry">
                        <mxPoint as="offset"/>
                    </mxGeometry>
                </mxCell>
                <mxCell id="30" value="&lt;span style=&quot;font-size: 40px;&quot;&gt;1&lt;/span&gt;&lt;div&gt;&lt;span style=&quot;font-size: 40px;&quot;&gt;&lt;br&gt;&lt;/span&gt;&lt;/div&gt;" style="edgeLabel;html=1;align=center;verticalAlign=middle;resizable=0;points=[];" vertex="1" connectable="0" parent="21">
                    <mxGeometry x="-0.5694" y="-1" relative="1" as="geometry">
                        <mxPoint as="offset"/>
                    </mxGeometry>
                </mxCell>
                <mxCell id="22" style="edgeStyle=none;html=1;exitX=0.5;exitY=0;exitDx=0;exitDy=0;entryX=0.137;entryY=1.018;entryDx=0;entryDy=0;entryPerimeter=0;" edge="1" parent="1" source="10" target="15">
                    <mxGeometry relative="1" as="geometry"/>
                </mxCell>
                <mxCell id="23" style="edgeStyle=none;html=1;exitX=1;exitY=0.5;exitDx=0;exitDy=0;entryX=0.25;entryY=0;entryDx=0;entryDy=0;" edge="1" parent="1" source="7" target="17">
                    <mxGeometry relative="1" as="geometry">
                        <mxPoint x="360" y="-50" as="targetPoint"/>
                    </mxGeometry>
                </mxCell>
                <mxCell id="24" style="edgeStyle=none;html=1;exitX=1;exitY=0.5;exitDx=0;exitDy=0;entryX=1;entryY=0;entryDx=0;entryDy=0;" edge="1" parent="1" source="7" target="17">
                    <mxGeometry relative="1" as="geometry"/>
                </mxCell>
                <mxCell id="26" value="Text" style="edgeLabel;html=1;align=center;verticalAlign=middle;resizable=0;points=[];" vertex="1" connectable="0" parent="24">
                    <mxGeometry x="0.8837" relative="1" as="geometry">
                        <mxPoint as="offset"/>
                    </mxGeometry>
                </mxCell>
            </root>
        </mxGraphModel>
    </diagram>
</mxfile>